<svg width="144" height="144" viewBox="0 0 144 144" fill="none" xmlns="http://www.w3.org/2000/svg">
<rect width="144" height="144" rx="20" fill="#1F2029"/>
<path d="M70.3125 59.9375C70.3125 57.6042 69.8542 55.3542 68.9375 53.1875C68.0625 50.9792 66.8542 49.0417 65.3125 47.375C63.7708 45.6667 61.9583 44.3125 59.875 43.3125C57.8333 42.2708 55.6458 41.75 53.3125 41.75C50.9792 41.75 48.7708 42.1458 46.6875 42.9375C44.6458 43.7292 42.8542 44.8958 41.3125 46.4375C39.8125 47.9792 38.625 49.8958 37.75 52.1875C36.875 54.4375 36.4375 57.0208 36.4375 59.9375C36.4375 62.7292 36.875 65.25 37.75 67.5C38.625 69.7083 39.8125 71.6042 41.3125 73.1875C42.8542 74.7708 44.6458 76 46.6875 76.875C48.7708 77.7083 50.9792 78.125 53.3125 78.125C55.6458 78.125 57.8333 77.625 59.875 76.625C61.9583 75.5833 63.7708 74.2292 65.3125 72.5625C66.8542 70.8542 68.0625 68.9167 68.9375 66.75C69.8542 64.5417 70.3125 62.2708 70.3125 59.9375ZM87.5 85.5625C87.5 90.2708 86.6042 94.6875 84.8125 98.8125C83.0208 102.938 80.5625 106.542 77.4375 109.625C74.3542 112.708 70.7292 115.146 66.5625 116.938C62.4375 118.729 58.0208 119.625 53.3125 119.625L44.75 119.5V102.438L53.1875 102.562C55.8542 102.562 58.125 102.208 60 101.5C61.875 100.833 63.4583 99.8958 64.75 98.6875C66.0417 97.5208 67.0625 96.1667 67.8125 94.625C68.6042 93.0833 69.2292 91.4583 69.6875 89.75C69.0208 90.8333 68.0625 91.7292 66.8125 92.4375C65.5625 93.1042 64.1667 93.6458 62.625 94.0625C61.125 94.5208 59.5417 94.8333 57.875 95C56.25 95.1667 54.7292 95.25 53.3125 95.25C48.6042 95.25 44.1667 94.4375 40 92.8125C35.875 91.1875 32.25 88.875 29.125 85.875C26.0417 82.8333 23.6042 79.125 21.8125 74.75C20.0208 70.375 19.125 65.4375 19.125 59.9375C19.125 54.8958 20.0208 50.2083 21.8125 45.875C23.6042 41.5417 26.0417 37.7917 29.125 34.625C32.25 31.4583 35.875 28.9792 40 27.1875C44.1667 25.3958 48.6042 24.5 53.3125 24.5C55.4792 24.5 57.625 24.7708 59.75 25.3125C61.875 25.8542 63.9375 26.6042 65.9375 27.5625C67.9375 28.5208 69.8333 29.6458 71.625 30.9375C73.4583 32.2292 75.1667 33.625 76.75 35.125L83.375 27.1875H87.5V85.5625Z" fill="white"/>
<path d="M121.562 87.625C121.562 89.125 121.292 90.5417 120.75 91.875C120.208 93.1667 119.458 94.2917 118.5 95.25C117.542 96.2083 116.417 96.9583 115.125 97.5C113.833 98.0833 112.438 98.375 110.938 98.375C109.479 98.375 108.083 98.0833 106.75 97.5C105.458 96.9583 104.312 96.2083 103.312 95.25C102.354 94.2917 101.583 93.1667 101 91.875C100.458 90.5417 100.188 89.125 100.188 87.625C100.188 86.1667 100.458 84.7917 101 83.5C101.583 82.2083 102.354 81.0833 103.312 80.125C104.312 79.1667 105.458 78.4167 106.75 77.875C108.083 77.2917 109.479 77 110.938 77C112.438 77 113.833 77.2917 115.125 77.875C116.417 78.4167 117.542 79.1667 118.5 80.125C119.458 81.0833 120.208 82.2083 120.75 83.5C121.292 84.7917 121.562 86.1667 121.562 87.625Z" fill="#EE374D"/>
</svg>
